<?xml version="1.0" encoding="UTF-8" standalone="no"?>
<!DOCTYPE svg PUBLIC "-//W3C//DTD SVG 1.1//EN" "http://www.w3.org/Graphics/SVG/1.1/DTD/svg11.dtd">
<svg width="100%" height="100%" viewBox="0 0 171 58" version="1.1" xmlns="http://www.w3.org/2000/svg" xmlns:xlink="http://www.w3.org/1999/xlink" xml:space="preserve" xmlns:serif="http://www.serif.com/" style="fill-rule:evenodd;clip-rule:evenodd;stroke-linejoin:round;stroke-miterlimit:2;">
    <g transform="matrix(0.208817,0,0,0.208817,-1.77494,-0.359629)">
        <path d="M191.1,179.1L287.2,217.9C292.6,203.5 295.6,187.3 295.6,171.5C295.6,119.6 264.4,72.5 217.8,52.1L177.8,147.7C177.8,147.7 185.6,151.6 189.6,160.3C194,169.6 191.1,179.1 191.1,179.1" style="fill:rgb(178,208,213);fill-rule:nonzero;"/>
    </g>
    <g transform="matrix(0.208817,0,0,0.208817,-1.77494,-0.359629)">
        <path d="M236.6,245.8C236.6,245.8 243.6,239.3 250,230.1C256.2,221.1 259.9,212.2 259.9,212.2L189.3,183.7C189.3,183.7 188.2,185.9 186.7,187.9C184.9,190.2 183.3,191.7 183.3,191.7L236.6,245.8Z" style="fill:rgb(128,176,185);fill-rule:nonzero;"/>
    </g>
    <g transform="matrix(0.208817,0,0,0.208817,-1.77494,-0.359629)">
        <path d="M146.5,191.6C146.5,191.6 143.1,188.6 140.8,184.1C138.4,179.4 138,175.3 138,174.8L34.3,174.9C35,209.9 50,242.4 74.5,266L146.5,191.6Z" style="fill:rgb(3,100,117);fill-rule:nonzero;"/>
    </g>
    <g transform="matrix(0.208817,0,0,0.208817,-1.77494,-0.359629)">
        <path d="M137.8,169.3L8.5,169.3C10,83.3 79.7,15.2 165.3,15.2C185.7,15.2 205.4,19.3 223.3,26.4L173.4,145.7C173.4,145.7 168.4,144.3 165.4,144.4C151.5,144.7 139.3,154 137.8,169.3" style="fill:rgb(52,129,143);fill-rule:nonzero;"/>
    </g>
    <g transform="matrix(0.208817,0,0,0.208817,-1.77494,-0.359629)">
        <path d="M383.2,200.9C378.2,200.9 373.8,199.7 370.1,197.4C366.4,195 363.6,191.7 361.6,187.5C359.6,183.2 358.6,178.2 358.6,172.5C358.6,166.7 359.6,161.7 361.6,157.5C363.6,153.2 366.5,149.9 370.1,147.6C373.8,145.2 378.1,144.1 383.2,144.1C388.3,144.1 392.6,145.3 396.3,147.6C400,150 402.8,153.3 404.8,157.5C406.8,161.8 407.8,166.8 407.8,172.5C407.8,178.3 406.8,183.3 404.8,187.5C402.8,191.8 399.9,195.1 396.3,197.4C392.6,199.7 388.2,200.9 383.2,200.9ZM383.2,196.4C389.3,196.4 394.1,194.3 397.6,190.1C401.1,185.9 402.9,180 402.9,172.4C402.9,164.8 401.1,158.9 397.6,154.7C394.1,150.5 389.3,148.4 383.2,148.4C377.2,148.4 372.4,150.5 368.8,154.7C365.2,158.9 363.4,164.8 363.4,172.4C363.4,180 365.2,185.9 368.8,190.1C372.4,194.3 377.2,196.4 383.2,196.4Z" style="fill:rgb(1,2,2);fill-rule:nonzero;"/>
    </g>
    <g transform="matrix(0.208817,0,0,0.208817,-1.77494,-0.359629)">
        <path d="M422.5,221.2C420.9,221.2 420.1,220.4 420.1,218.7L420.1,146.7C420.1,145 420.9,144.2 422.5,144.2C424.1,144.2 424.9,145 424.9,146.7L424.9,155.7C426.6,152.1 429.1,149.2 432.5,147.1C435.9,145 439.9,144 444.6,144C449.6,144 453.9,145.2 457.6,147.5C461.2,149.8 464.1,153.1 466.1,157.4C468.1,161.7 469.1,166.7 469.1,172.6C469.1,181.3 466.9,188.3 462.5,193.4C458.1,198.5 452.1,201.1 444.6,201.1C440,201.1 435.9,200.1 432.5,198C429.1,195.9 426.5,193 424.9,189.4L424.9,218.9C424.9,220.3 424.1,221.2 422.5,221.2ZM444.5,196.4C450.6,196.4 455.4,194.3 458.9,190.1C462.4,185.9 464.2,180 464.2,172.4C464.2,164.8 462.4,158.9 458.9,154.7C455.4,150.5 450.6,148.4 444.5,148.4C438.5,148.4 433.7,150.5 430.1,154.7C426.5,158.9 424.7,164.8 424.7,172.4C424.7,180 426.5,185.9 430.1,190.1C433.7,194.3 438.5,196.4 444.5,196.4Z" style="fill:rgb(1,2,2);fill-rule:nonzero;"/>
    </g>
    <g transform="matrix(0.208817,0,0,0.208817,-1.77494,-0.359629)">
        <path d="M506.4,200.9C498.2,200.9 491.7,198.4 487,193.3C482.2,188.2 479.9,181.3 479.9,172.6C479.9,166.8 481,161.8 483.1,157.5C485.3,153.2 488.3,149.9 492.1,147.5C495.9,145.1 500.4,143.9 505.4,143.9C512.5,143.9 518.1,146.2 522,150.9C526,155.6 527.9,162.1 527.9,170.3C527.9,172.3 527.1,173.3 525.4,173.3L484.7,173.3C484.9,180.7 486.8,186.4 490.5,190.4C494.2,194.4 499.4,196.4 506.1,196.4C509.1,196.4 512,196 514.6,195.2C517.3,194.4 519.9,193 522.5,190.9C523.5,190.1 524.4,189.9 525.2,190.2C526,190.5 526.5,191.1 526.7,191.9C526.9,192.7 526.5,193.6 525.5,194.4C523.1,196.4 520.3,197.9 516.8,199.1C513.5,200.3 510,200.9 506.4,200.9ZM505.3,148.2C499.1,148.2 494.3,150.2 490.9,154.1C487.4,158.1 485.4,163 484.9,169L523.5,169C523.3,162.5 521.6,157.4 518.6,153.7C515.6,150.1 511.1,148.2 505.3,148.2Z" style="fill:rgb(1,2,2);fill-rule:nonzero;"/>
    </g>
    <g transform="matrix(0.208817,0,0,0.208817,-1.77494,-0.359629)">
        <path d="M544.4,200.7C542.8,200.7 542,199.9 542,198.2L542,146.7C542,145 542.8,144.2 544.4,144.2C545.9,144.2 546.7,145 546.7,146.7L546.7,155.1C548.5,151.4 551.2,148.6 554.6,146.7C558.1,144.8 561.9,143.9 566.2,143.9C579.3,143.9 585.9,150.9 585.9,164.9L585.9,198.2C585.9,199.9 585.1,200.7 583.5,200.7C581.9,200.7 581.1,199.9 581.1,198.2L581.1,165.4C581.1,159.5 579.9,155.3 577.6,152.5C575.2,149.8 571.4,148.4 566.2,148.4C560.3,148.4 555.7,150.2 552.1,153.8C548.6,157.4 546.8,162.3 546.8,168.3L546.8,198.2C546.8,199.8 546,200.7 544.4,200.7Z" style="fill:rgb(1,2,2);fill-rule:nonzero;"/>
    </g>
    <g transform="matrix(0.208817,0,0,0.208817,-1.77494,-0.359629)">
        <path d="M605.2,197.9C603.3,196 602.4,193.5 602.4,190.3L602.4,129.3C602.4,126.2 603.3,123.7 605.2,121.8C607.1,119.9 609.6,119 612.8,119C616.1,119 618.7,119.9 620.6,121.8C622.5,123.7 623.5,126.2 623.5,129.3L623.5,190.3C623.5,193.5 622.5,196 620.6,197.9C618.7,199.8 616.1,200.7 612.8,200.7C609.6,200.7 607.1,199.7 605.2,197.9Z" style="fill:rgb(1,2,2);fill-rule:nonzero;"/>
    </g>
    <g transform="matrix(0.208817,0,0,0.208817,-1.77494,-0.359629)">
        <path d="M716.4,121.9C718.2,123.8 719.1,126.3 719.1,129.3L719.1,191.3C719.1,194.2 718.3,196.5 716.6,198.1C714.9,199.8 712.7,200.6 710,200.6C707.3,200.6 705.2,199.8 703.4,198.1C701.7,196.4 700.8,194.1 700.8,191.3L700.8,157.8L687.8,181.7C686.5,184.1 685.1,185.9 683.7,186.9C682.3,187.9 680.5,188.4 678.6,188.4C676.6,188.4 674.9,187.9 673.5,186.9C672.1,185.9 670.7,184.1 669.4,181.7L656.5,158.4L656.5,191.2C656.5,194 655.6,196.3 653.9,198C652.2,199.7 650,200.6 647.2,200.6C644.5,200.6 642.4,199.8 640.6,198.1C638.9,196.4 638,194.1 638,191.3L638,129.3C638,126.3 638.9,123.8 640.8,121.9C642.7,120 645,119 647.9,119C650,119 651.8,119.6 653.5,120.8C655.2,122 656.6,123.7 657.7,125.9L678.7,165.3L699.6,125.9C702,121.3 705.1,119.1 709.2,119.1C712.2,119 714.6,120 716.4,121.9Z" style="fill:rgb(1,2,2);fill-rule:nonzero;"/>
    </g>
    <g transform="matrix(0.208817,0,0,0.208817,-1.77494,-0.359629)">
        <path d="M734,197.9C732.1,196 731.2,193.5 731.2,190.3L731.2,129.3C731.2,126.2 732.1,123.7 734,121.8C735.9,119.9 738.4,119 741.6,119C744.9,119 747.5,119.9 749.4,121.8C751.3,123.7 752.2,126.2 752.2,129.3L752.2,190.3C752.2,193.5 751.2,196 749.4,197.9C747.5,199.8 744.9,200.7 741.6,200.7C738.4,200.7 735.9,199.7 734,197.9Z" style="fill:rgb(1,2,2);fill-rule:nonzero;"/>
    </g>
    <g transform="matrix(0.208817,0,0,0.208817,-1.77494,-0.359629)">
        <path d="M776.7,199C771.5,197.7 767.2,195.8 763.9,193.5C762.6,192.5 761.7,191.5 761.1,190.4C760.5,189.3 760.2,188 760.2,186.3C760.2,184 760.9,182 762.3,180.4C763.7,178.7 765.3,177.9 767.1,177.9C768.1,177.9 769,178.1 769.9,178.4C770.8,178.7 772,179.3 773.3,180.1C776.4,181.8 779.5,183.1 782.6,183.9C785.7,184.7 789.2,185 793,185C797.5,185 800.9,184.3 803.2,183C805.5,181.7 806.7,179.7 806.7,177.1C806.7,175.4 805.6,173.9 803.5,172.6C801.4,171.3 797.2,170.1 791.1,168.9C783.6,167.3 777.7,165.4 773.4,163.2C769.1,161 766.2,158.4 764.5,155.4C762.8,152.4 761.9,148.8 761.9,144.5C761.9,139.6 763.3,135.2 766.2,131.3C769.1,127.3 773.1,124.3 778.1,122C783.2,119.8 788.8,118.6 795.1,118.6C800.6,118.6 805.6,119.2 809.9,120.4C814.2,121.6 818.2,123.5 821.8,126.1C823.2,127.1 824.1,128.1 824.7,129.2C825.3,130.3 825.6,131.7 825.6,133.2C825.6,135.5 824.9,137.5 823.6,139.1C822.3,140.8 820.7,141.6 818.9,141.6C817.9,141.6 817,141.5 816.2,141.2C815.4,140.9 814.2,140.3 812.7,139.4C812.3,139.2 811.2,138.6 809.5,137.6C807.7,136.6 805.6,135.9 803.2,135.3C800.8,134.7 798.2,134.4 795.4,134.4C791.5,134.4 788.4,135.1 786.1,136.6C783.7,138.1 782.6,140 782.6,142.5C782.6,143.9 783,145.1 783.9,146C784.7,146.9 786.3,147.8 788.6,148.7C790.9,149.6 794.3,150.5 798.7,151.4C806,153 811.7,154.9 815.9,157.2C820.1,159.4 823,162 824.8,165C826.5,168 827.4,171.5 827.4,175.5C827.4,180.5 826,184.9 823.2,188.8C820.4,192.6 816.5,195.6 811.4,197.7C806.3,199.8 800.5,200.8 793.8,200.8C787.5,201 781.9,200.3 776.7,199Z" style="fill:rgb(1,2,2);fill-rule:nonzero;"/>
    </g>
</svg>